<mxfile host="app.diagrams.net" agent="Mozilla/5.0 (Macintosh; Intel Mac OS X 10_15_7) AppleWebKit/537.36 (KHTML, like Gecko) Chrome/128.0.0.0 Safari/537.36" version="24.7.14">
  <diagram name="페이지-1" id="OoJxiF3Sf_r9WKsaD1j8">
    <mxGraphModel dx="2074" dy="1121" grid="1" gridSize="10" guides="1" tooltips="1" connect="1" arrows="1" fold="1" page="1" pageScale="1" pageWidth="827" pageHeight="1169" math="0" shadow="0">
      <root>
        <mxCell id="0" />
        <mxCell id="1" parent="0" />
        <mxCell id="D9L13PgoGrqBhA1xQZXO-2" value="A 사이트" style="ellipse;whiteSpace=wrap;html=1;" vertex="1" parent="1">
          <mxGeometry x="40" y="40" width="80" height="40" as="geometry" />
        </mxCell>
        <mxCell id="D9L13PgoGrqBhA1xQZXO-4" value="B 사이트" style="ellipse;whiteSpace=wrap;html=1;" vertex="1" parent="1">
          <mxGeometry x="40" y="100" width="80" height="40" as="geometry" />
        </mxCell>
        <mxCell id="D9L13PgoGrqBhA1xQZXO-5" value="N 사이트" style="ellipse;whiteSpace=wrap;html=1;" vertex="1" parent="1">
          <mxGeometry x="40" y="240" width="80" height="40" as="geometry" />
        </mxCell>
        <mxCell id="D9L13PgoGrqBhA1xQZXO-6" value="" style="endArrow=none;dashed=1;html=1;dashPattern=1 3;strokeWidth=2;rounded=0;" edge="1" parent="1">
          <mxGeometry width="50" height="50" relative="1" as="geometry">
            <mxPoint x="80" y="230" as="sourcePoint" />
            <mxPoint x="80" y="150" as="targetPoint" />
          </mxGeometry>
        </mxCell>
        <mxCell id="D9L13PgoGrqBhA1xQZXO-8" value="ingress-controller" style="ellipse;whiteSpace=wrap;html=1;" vertex="1" parent="1">
          <mxGeometry x="240" y="70" width="80" height="40" as="geometry" />
        </mxCell>
        <mxCell id="D9L13PgoGrqBhA1xQZXO-9" value="ingress-controller" style="ellipse;whiteSpace=wrap;html=1;" vertex="1" parent="1">
          <mxGeometry x="240" y="130" width="80" height="40" as="geometry" />
        </mxCell>
        <mxCell id="D9L13PgoGrqBhA1xQZXO-11" value="ingress-controller" style="ellipse;whiteSpace=wrap;html=1;" vertex="1" parent="1">
          <mxGeometry x="240" y="190" width="80" height="40" as="geometry" />
        </mxCell>
        <mxCell id="D9L13PgoGrqBhA1xQZXO-12" value="app" style="ellipse;whiteSpace=wrap;html=1;" vertex="1" parent="1">
          <mxGeometry x="450" y="40" width="80" height="40" as="geometry" />
        </mxCell>
        <mxCell id="D9L13PgoGrqBhA1xQZXO-13" value="app" style="ellipse;whiteSpace=wrap;html=1;" vertex="1" parent="1">
          <mxGeometry x="450" y="100" width="80" height="40" as="geometry" />
        </mxCell>
        <mxCell id="D9L13PgoGrqBhA1xQZXO-14" value="app" style="ellipse;whiteSpace=wrap;html=1;" vertex="1" parent="1">
          <mxGeometry x="450" y="160" width="80" height="40" as="geometry" />
        </mxCell>
        <mxCell id="D9L13PgoGrqBhA1xQZXO-15" value="app" style="ellipse;whiteSpace=wrap;html=1;" vertex="1" parent="1">
          <mxGeometry x="450" y="220" width="80" height="40" as="geometry" />
        </mxCell>
        <mxCell id="D9L13PgoGrqBhA1xQZXO-16" value="" style="endArrow=classic;html=1;rounded=0;" edge="1" parent="1">
          <mxGeometry width="50" height="50" relative="1" as="geometry">
            <mxPoint x="130" y="60" as="sourcePoint" />
            <mxPoint x="230" y="80" as="targetPoint" />
          </mxGeometry>
        </mxCell>
        <mxCell id="D9L13PgoGrqBhA1xQZXO-17" value="" style="endArrow=classic;html=1;rounded=0;" edge="1" parent="1">
          <mxGeometry width="50" height="50" relative="1" as="geometry">
            <mxPoint x="130" y="130" as="sourcePoint" />
            <mxPoint x="230" y="150" as="targetPoint" />
          </mxGeometry>
        </mxCell>
        <mxCell id="D9L13PgoGrqBhA1xQZXO-18" value="" style="endArrow=classic;html=1;rounded=0;" edge="1" parent="1">
          <mxGeometry width="50" height="50" relative="1" as="geometry">
            <mxPoint x="130" y="260" as="sourcePoint" />
            <mxPoint x="230" y="210" as="targetPoint" />
          </mxGeometry>
        </mxCell>
        <mxCell id="D9L13PgoGrqBhA1xQZXO-19" value="" style="endArrow=classic;html=1;rounded=0;" edge="1" parent="1">
          <mxGeometry width="50" height="50" relative="1" as="geometry">
            <mxPoint x="330" y="90" as="sourcePoint" />
            <mxPoint x="440" y="60" as="targetPoint" />
          </mxGeometry>
        </mxCell>
        <mxCell id="D9L13PgoGrqBhA1xQZXO-20" value="" style="endArrow=classic;html=1;rounded=0;" edge="1" parent="1">
          <mxGeometry width="50" height="50" relative="1" as="geometry">
            <mxPoint x="330" y="150" as="sourcePoint" />
            <mxPoint x="440" y="170" as="targetPoint" />
          </mxGeometry>
        </mxCell>
        <mxCell id="D9L13PgoGrqBhA1xQZXO-21" value="" style="endArrow=classic;html=1;rounded=0;" edge="1" parent="1">
          <mxGeometry width="50" height="50" relative="1" as="geometry">
            <mxPoint x="330" y="210" as="sourcePoint" />
            <mxPoint x="430" y="230" as="targetPoint" />
          </mxGeometry>
        </mxCell>
        <mxCell id="D9L13PgoGrqBhA1xQZXO-22" value="A 사이트" style="ellipse;whiteSpace=wrap;html=1;" vertex="1" parent="1">
          <mxGeometry x="40" y="420" width="80" height="40" as="geometry" />
        </mxCell>
        <mxCell id="D9L13PgoGrqBhA1xQZXO-23" value="B 사이트" style="ellipse;whiteSpace=wrap;html=1;" vertex="1" parent="1">
          <mxGeometry x="40" y="480" width="80" height="40" as="geometry" />
        </mxCell>
        <mxCell id="D9L13PgoGrqBhA1xQZXO-24" value="N 사이트" style="ellipse;whiteSpace=wrap;html=1;" vertex="1" parent="1">
          <mxGeometry x="40" y="680" width="80" height="40" as="geometry" />
        </mxCell>
        <mxCell id="D9L13PgoGrqBhA1xQZXO-25" value="" style="endArrow=none;dashed=1;html=1;dashPattern=1 3;strokeWidth=2;rounded=0;" edge="1" parent="1">
          <mxGeometry width="50" height="50" relative="1" as="geometry">
            <mxPoint x="80" y="610" as="sourcePoint" />
            <mxPoint x="80" y="530" as="targetPoint" />
          </mxGeometry>
        </mxCell>
        <mxCell id="D9L13PgoGrqBhA1xQZXO-26" value="ingress-controller" style="ellipse;whiteSpace=wrap;html=1;" vertex="1" parent="1">
          <mxGeometry x="240" y="450" width="80" height="40" as="geometry" />
        </mxCell>
        <mxCell id="D9L13PgoGrqBhA1xQZXO-27" value="ingress-controller" style="ellipse;whiteSpace=wrap;html=1;" vertex="1" parent="1">
          <mxGeometry x="240" y="510" width="80" height="40" as="geometry" />
        </mxCell>
        <mxCell id="D9L13PgoGrqBhA1xQZXO-28" value="ingress-controller" style="ellipse;whiteSpace=wrap;html=1;" vertex="1" parent="1">
          <mxGeometry x="240" y="570" width="80" height="40" as="geometry" />
        </mxCell>
        <mxCell id="D9L13PgoGrqBhA1xQZXO-29" value="app" style="ellipse;whiteSpace=wrap;html=1;" vertex="1" parent="1">
          <mxGeometry x="450" y="420" width="80" height="40" as="geometry" />
        </mxCell>
        <mxCell id="D9L13PgoGrqBhA1xQZXO-30" value="app" style="ellipse;whiteSpace=wrap;html=1;" vertex="1" parent="1">
          <mxGeometry x="450" y="480" width="80" height="40" as="geometry" />
        </mxCell>
        <mxCell id="D9L13PgoGrqBhA1xQZXO-31" value="app" style="ellipse;whiteSpace=wrap;html=1;" vertex="1" parent="1">
          <mxGeometry x="450" y="540" width="80" height="40" as="geometry" />
        </mxCell>
        <mxCell id="D9L13PgoGrqBhA1xQZXO-32" value="app" style="ellipse;whiteSpace=wrap;html=1;" vertex="1" parent="1">
          <mxGeometry x="450" y="600" width="80" height="40" as="geometry" />
        </mxCell>
        <mxCell id="D9L13PgoGrqBhA1xQZXO-33" value="" style="endArrow=classic;html=1;rounded=0;" edge="1" parent="1">
          <mxGeometry width="50" height="50" relative="1" as="geometry">
            <mxPoint x="130" y="440" as="sourcePoint" />
            <mxPoint x="230" y="460" as="targetPoint" />
          </mxGeometry>
        </mxCell>
        <mxCell id="D9L13PgoGrqBhA1xQZXO-34" value="" style="endArrow=classic;html=1;rounded=0;" edge="1" parent="1">
          <mxGeometry width="50" height="50" relative="1" as="geometry">
            <mxPoint x="130" y="510" as="sourcePoint" />
            <mxPoint x="230" y="530" as="targetPoint" />
          </mxGeometry>
        </mxCell>
        <mxCell id="D9L13PgoGrqBhA1xQZXO-35" value="" style="endArrow=classic;html=1;rounded=0;" edge="1" parent="1">
          <mxGeometry width="50" height="50" relative="1" as="geometry">
            <mxPoint x="130" y="690" as="sourcePoint" />
            <mxPoint x="230" y="590" as="targetPoint" />
          </mxGeometry>
        </mxCell>
        <mxCell id="D9L13PgoGrqBhA1xQZXO-36" value="" style="endArrow=classic;html=1;rounded=0;" edge="1" parent="1">
          <mxGeometry width="50" height="50" relative="1" as="geometry">
            <mxPoint x="330" y="470" as="sourcePoint" />
            <mxPoint x="440" y="440" as="targetPoint" />
          </mxGeometry>
        </mxCell>
        <mxCell id="D9L13PgoGrqBhA1xQZXO-37" value="" style="endArrow=classic;html=1;rounded=0;" edge="1" parent="1">
          <mxGeometry width="50" height="50" relative="1" as="geometry">
            <mxPoint x="330" y="530" as="sourcePoint" />
            <mxPoint x="440" y="550" as="targetPoint" />
          </mxGeometry>
        </mxCell>
        <mxCell id="D9L13PgoGrqBhA1xQZXO-38" value="" style="endArrow=classic;html=1;rounded=0;" edge="1" parent="1">
          <mxGeometry width="50" height="50" relative="1" as="geometry">
            <mxPoint x="330" y="590" as="sourcePoint" />
            <mxPoint x="430" y="610" as="targetPoint" />
          </mxGeometry>
        </mxCell>
        <mxCell id="D9L13PgoGrqBhA1xQZXO-39" value="&lt;font color=&quot;#ff562b&quot;&gt;문제의 사이트&lt;/font&gt;" style="ellipse;whiteSpace=wrap;html=1;" vertex="1" parent="1">
          <mxGeometry x="40" y="620" width="80" height="40" as="geometry" />
        </mxCell>
        <mxCell id="D9L13PgoGrqBhA1xQZXO-41" value="" style="endArrow=classic;html=1;rounded=0;strokeColor=#FF562B;" edge="1" parent="1">
          <mxGeometry width="50" height="50" relative="1" as="geometry">
            <mxPoint x="120" y="610" as="sourcePoint" />
            <mxPoint x="230" y="540" as="targetPoint" />
          </mxGeometry>
        </mxCell>
        <mxCell id="D9L13PgoGrqBhA1xQZXO-42" value="" style="endArrow=classic;html=1;rounded=0;strokeColor=#FF562B;" edge="1" parent="1">
          <mxGeometry width="50" height="50" relative="1" as="geometry">
            <mxPoint x="130" y="620" as="sourcePoint" />
            <mxPoint x="230" y="550" as="targetPoint" />
          </mxGeometry>
        </mxCell>
        <mxCell id="D9L13PgoGrqBhA1xQZXO-43" value="" style="endArrow=classic;html=1;rounded=0;strokeColor=#FF562B;" edge="1" parent="1">
          <mxGeometry width="50" height="50" relative="1" as="geometry">
            <mxPoint x="130" y="630" as="sourcePoint" />
            <mxPoint x="230" y="560" as="targetPoint" />
          </mxGeometry>
        </mxCell>
        <mxCell id="D9L13PgoGrqBhA1xQZXO-44" value="" style="endArrow=classic;html=1;rounded=0;strokeColor=#FF562B;" edge="1" parent="1">
          <mxGeometry width="50" height="50" relative="1" as="geometry">
            <mxPoint x="110" y="600" as="sourcePoint" />
            <mxPoint x="210" y="540" as="targetPoint" />
          </mxGeometry>
        </mxCell>
        <mxCell id="D9L13PgoGrqBhA1xQZXO-45" value="" style="endArrow=classic;html=1;rounded=0;strokeColor=#FF562B;" edge="1" parent="1">
          <mxGeometry width="50" height="50" relative="1" as="geometry">
            <mxPoint x="330" y="520" as="sourcePoint" />
            <mxPoint x="440" y="540" as="targetPoint" />
          </mxGeometry>
        </mxCell>
        <mxCell id="D9L13PgoGrqBhA1xQZXO-46" value="" style="endArrow=classic;html=1;rounded=0;strokeColor=#FF562B;" edge="1" parent="1">
          <mxGeometry width="50" height="50" relative="1" as="geometry">
            <mxPoint x="330" y="540" as="sourcePoint" />
            <mxPoint x="440" y="560" as="targetPoint" />
          </mxGeometry>
        </mxCell>
        <mxCell id="D9L13PgoGrqBhA1xQZXO-47" value="" style="endArrow=classic;html=1;rounded=0;strokeColor=#FF562B;" edge="1" parent="1">
          <mxGeometry width="50" height="50" relative="1" as="geometry">
            <mxPoint x="324" y="550" as="sourcePoint" />
            <mxPoint x="440" y="570" as="targetPoint" />
          </mxGeometry>
        </mxCell>
        <mxCell id="D9L13PgoGrqBhA1xQZXO-48" value="" style="endArrow=classic;html=1;rounded=0;strokeColor=#FF562B;" edge="1" parent="1">
          <mxGeometry width="50" height="50" relative="1" as="geometry">
            <mxPoint x="330" y="510" as="sourcePoint" />
            <mxPoint x="440" y="530" as="targetPoint" />
          </mxGeometry>
        </mxCell>
      </root>
    </mxGraphModel>
  </diagram>
</mxfile>
